<svg width="563" height="364" viewBox="0 0 563 364" fill="none" xmlns="http://www.w3.org/2000/svg">
<path d="M58.84 165V32.16H93.444C99.1293 32.16 104.487 32.5973 109.516 33.472C114.655 34.3467 119.192 36.0413 123.128 38.556C127.064 40.9613 130.125 44.46 132.312 49.052C134.608 53.5347 135.756 59.4933 135.756 66.928C135.756 72.2853 134.936 76.8227 133.296 80.54C131.765 84.148 129.524 87.0453 126.572 89.232C123.729 91.4187 120.285 92.8947 116.24 93.66C121.379 94.316 125.697 96.0107 129.196 98.744C132.695 101.368 135.319 104.921 137.068 109.404C138.927 113.887 139.856 119.299 139.856 125.64C139.856 132.528 138.927 138.487 137.068 143.516C135.319 148.436 132.749 152.481 129.36 155.652C125.971 158.823 121.761 161.173 116.732 162.704C111.812 164.235 106.127 165 99.676 165H58.84ZM88.196 144.5H94.428C100.879 144.5 105.307 142.86 107.712 139.58C110.227 136.3 111.484 131.489 111.484 125.148C111.484 120.119 110.937 116.128 109.844 113.176C108.751 110.224 106.947 108.092 104.432 106.78C101.917 105.359 98.528 104.648 94.264 104.648H88.196V144.5ZM88.196 85.296H93.936C98.4187 85.296 101.808 84.64 104.104 83.328C106.4 81.9067 107.931 79.884 108.696 77.26C109.571 74.636 110.008 71.4653 110.008 67.748C110.008 64.2493 109.352 61.352 108.04 59.056C106.837 56.6507 104.979 54.8467 102.464 53.644C100.059 52.4413 96.9973 51.84 93.28 51.84H88.196V85.296ZM147.054 165V32.16H183.626C192.591 32.16 200.354 33.144 206.914 35.112C213.474 37.08 218.558 40.6333 222.166 45.772C225.883 50.8013 227.742 57.9627 227.742 67.256C227.742 72.7227 227.305 77.588 226.43 81.852C225.555 86.116 223.915 89.8333 221.51 93.004C219.214 96.0653 215.879 98.6347 211.506 100.712L229.71 165H199.37L184.774 105.468H176.41V165H147.054ZM176.41 88.576H184.61C188.765 88.576 191.99 87.8653 194.286 86.444C196.582 84.9133 198.167 82.7813 199.042 80.048C200.026 77.2053 200.518 73.816 200.518 69.88C200.518 64.1947 199.479 59.7667 197.402 56.596C195.325 53.4253 191.498 51.84 185.922 51.84H176.41V88.576ZM273.957 166.968C264.007 166.968 256.135 165.219 250.341 161.72C244.546 158.221 240.391 153.192 237.877 146.632C235.362 140.072 234.105 132.255 234.105 123.18V73.816C234.105 64.632 235.362 56.8147 237.877 50.364C240.391 43.9133 244.546 38.9933 250.341 35.604C256.135 32.1053 264.007 30.356 273.957 30.356C284.015 30.356 291.942 32.1053 297.737 35.604C303.641 38.9933 307.85 43.9133 310.365 50.364C312.879 56.8147 314.137 64.632 314.137 73.816V123.18C314.137 132.255 312.879 140.072 310.365 146.632C307.85 153.192 303.641 158.221 297.737 161.72C291.942 165.219 284.015 166.968 273.957 166.968ZM273.957 146.14C277.018 146.14 279.259 145.375 280.681 143.844C282.102 142.313 283.031 140.345 283.469 137.94C283.906 135.535 284.125 133.075 284.125 130.56V66.6C284.125 63.976 283.906 61.516 283.469 59.22C283.031 56.8147 282.102 54.8467 280.681 53.316C279.259 51.7853 277.018 51.02 273.957 51.02C271.114 51.02 268.982 51.7853 267.561 53.316C266.139 54.8467 265.21 56.8147 264.773 59.22C264.335 61.516 264.117 63.976 264.117 66.6V130.56C264.117 133.075 264.281 135.535 264.609 137.94C265.046 140.345 265.921 142.313 267.233 143.844C268.654 145.375 270.895 146.14 273.957 146.14ZM323.802 165V32.16H353.158V86.444L375.462 32.16H404.162L379.562 92.184L405.311 165H375.462L356.274 106.288L353.158 111.536V165H323.802ZM408.653 165V32.16H468.349V52.168H438.009V85.132H461.133V105.468H438.009V145.156H468.677V165H408.653ZM473.805 165V32.16H510.377C519.342 32.16 527.105 33.144 533.665 35.112C540.225 37.08 545.309 40.6333 548.917 45.772C552.634 50.8013 554.493 57.9627 554.493 67.256C554.493 72.7227 554.056 77.588 553.181 81.852C552.306 86.116 550.666 89.8333 548.261 93.004C545.965 96.0653 542.63 98.6347 538.257 100.712L556.461 165H526.121L511.525 105.468H503.161V165H473.805ZM503.161 88.576H511.361C515.516 88.576 518.741 87.8653 521.037 86.444C523.333 84.9133 524.918 82.7813 525.793 80.048C526.777 77.2053 527.269 73.816 527.269 69.88C527.269 64.1947 526.23 59.7667 524.153 56.596C522.076 53.4253 518.249 51.84 512.673 51.84H503.161V88.576ZM52.444 347L77.536 214.16H110.992L135.756 347H108.696L104.268 318.956H84.752L80.16 347H52.444ZM87.376 301.408H101.48L94.428 249.584L87.376 301.408ZM140.968 347V214.16H185.576C193.557 214.16 200.117 215.691 205.256 218.752C210.395 221.704 214.221 226.077 216.736 231.872C219.251 237.557 220.508 244.5 220.508 252.7C220.508 262.977 218.813 270.849 215.424 276.316C212.035 281.673 207.443 285.391 201.648 287.468C195.853 289.545 189.348 290.584 182.132 290.584H170.324V347H140.968ZM170.324 270.084H180.164C183.772 270.084 186.505 269.428 188.364 268.116C190.223 266.804 191.425 264.836 191.972 262.212C192.628 259.588 192.956 256.253 192.956 252.208C192.956 248.819 192.683 245.867 192.136 243.352C191.699 240.728 190.551 238.651 188.692 237.12C186.833 235.589 183.936 234.824 180 234.824H170.324V270.084ZM226.46 347V214.16H271.068C279.049 214.16 285.609 215.691 290.748 218.752C295.886 221.704 299.713 226.077 302.228 231.872C304.742 237.557 306 244.5 306 252.7C306 262.977 304.305 270.849 300.916 276.316C297.526 281.673 292.934 285.391 287.14 287.468C281.345 289.545 274.84 290.584 267.624 290.584H255.816V347H226.46ZM255.816 270.084H265.656C269.264 270.084 271.997 269.428 273.856 268.116C275.714 266.804 276.917 264.836 277.464 262.212C278.12 259.588 278.448 256.253 278.448 252.208C278.448 248.819 278.174 245.867 277.628 243.352C277.19 240.728 276.042 238.651 274.184 237.12C272.325 235.589 269.428 234.824 265.492 234.824H255.816V270.084Z" fill="currentColor"/>
<rect y="32" width="42" height="315" fill="currentColor"/>
</svg>
