<svg xmlns="http://www.w3.org/2000/svg" version="1.1" xmlns:xlink="http://www.w3.org/1999/xlink" width="145" height="133"><svg width="145" height="133" viewBox="0 0 145 133" fill="none" xmlns="http://www.w3.org/2000/svg">
<path d="M23.1301 57.6099C22.7901 57.6099 22.6201 57.4399 22.6201 57.0999V0.649944C22.6201 0.259944 22.7901 0.0699463 23.1301 0.0699463H33.6301C35.4301 0.0699463 36.9601 0.709947 38.2201 1.99995C39.4801 3.28995 40.1201 4.82994 40.1201 6.62994V25.7399C40.1201 26.8599 39.8501 27.8999 39.3201 28.8799C39.8501 29.8499 40.1201 30.8999 40.1201 32.0199V51.1299C40.1201 52.9299 39.4901 54.4599 38.2201 55.7199C36.9601 56.9899 35.4201 57.6199 33.6301 57.6199H23.1301V57.6099ZM29.3301 25.4499H33.4101V6.84995H29.3301V25.4499ZM29.3301 50.8999H33.4101V32.2299H29.3301V50.8999Z" fill="#D57419"></path>
<path d="M44.28 57.6099C43.94 57.6099 43.77 57.4399 43.77 57.0999V0.579945C43.77 0.239945 43.94 0.0699463 44.28 0.0699463H54.71C56.51 0.0699463 58.05 0.699944 59.34 1.96994C60.63 3.22994 61.27 4.76994 61.27 6.55994V25.6699C61.27 27.6199 60.54 29.2399 59.08 30.5599L62.36 57.0299C62.36 57.4199 62.17 57.6099 61.78 57.6099H56.09C55.75 57.6099 55.58 57.4399 55.58 57.0999L52.52 32.2299H50.48V57.0999C50.48 57.4399 50.29 57.6099 49.9 57.6099H44.28ZM50.48 25.4499H54.56V6.77995H50.48V25.4499Z" fill="#D57419"></path>
<path d="M71.9201 57.61C70.1201 57.61 68.5801 56.97 67.2901 55.68C66.0001 54.39 65.3601 52.85 65.3601 51.05V6.56C65.3601 4.76 66.0001 3.22 67.2901 1.93C68.5801 0.64 70.1201 0 71.9201 0H76.3701C78.1701 0 79.7101 0.629998 81.0001 1.9C82.2901 3.17 82.9301 4.72 82.9301 6.57V51.06C82.9301 52.86 82.2901 54.4 81.0001 55.69C79.7101 56.98 78.1701 57.62 76.3701 57.62H71.9201V57.61ZM72.1401 50.83H76.1501V6.78H72.1401V50.83Z" fill="#D57419"></path>
<path d="M86.4299 57.61C86.0899 57.61 85.9199 57.42 85.9199 57.03V0.659958C85.9199 0.269958 86.0899 0.0799561 86.4299 0.0799561H92.0499C92.4399 0.0799561 92.6299 0.269958 92.6299 0.659958V22.54L96.8599 0.589958C96.9099 0.249958 97.0999 0.0799561 97.4399 0.0799561H103.13C103.62 0.0799561 103.81 0.299956 103.71 0.739956L97.9499 28.96L103.71 56.96C103.76 57.4 103.56 57.62 103.13 57.62H97.4399C97.1499 57.62 96.9499 57.47 96.8599 57.18L92.6299 35.3V57.03C92.6299 57.42 92.4399 57.61 92.0499 57.61H86.4299Z" fill="#D57419"></path>
<path d="M107.8 57.61C107.41 57.61 107.22 57.42 107.22 57.03V0.579998C107.22 0.189998 107.41 0 107.8 0H121.66C122 0 122.17 0.189998 122.17 0.579998V6.2C122.17 6.59 122 6.78 121.66 6.78H114V25.45H120.34C120.73 25.45 120.92 25.64 120.92 26.03V31.65C120.92 32.04 120.73 32.23 120.34 32.23H114V50.83H121.66C122 50.83 122.17 51.02 122.17 51.41V57.03C122.17 57.42 122 57.61 121.66 57.61H107.8Z" fill="#D57419"></path>
<path d="M126.17 57.6099C125.83 57.6099 125.66 57.4399 125.66 57.0999V0.579945C125.66 0.239945 125.83 0.0699463 126.17 0.0699463H136.6C138.4 0.0699463 139.94 0.699944 141.23 1.96994C142.52 3.22994 143.16 4.76994 143.16 6.55994V25.6699C143.16 27.6199 142.43 29.2399 140.97 30.5599L144.25 57.0299C144.25 57.4199 144.06 57.6099 143.67 57.6099H137.98C137.64 57.6099 137.47 57.4399 137.47 57.0999L134.41 32.2299H132.37V57.0999C132.37 57.4399 132.18 57.6099 131.79 57.6099H126.17ZM132.37 25.4499H136.45V6.77995H132.37V25.4499Z" fill="#D57419"></path>
<path d="M20.53 132.4C20.34 132.4 20.18 132.36 20.06 132.29C19.94 132.22 19.9 132.08 19.95 131.89L26.81 75.3C26.81 75.01 26.98 74.86 27.32 74.86H33.23C33.57 74.86 33.74 75.01 33.74 75.3L40.67 131.96C40.72 132.11 40.68 132.22 40.56 132.29C40.44 132.36 40.28 132.4 40.09 132.4H34.47C34.08 132.4 33.89 132.25 33.89 131.96L32.58 121.02H28.06L26.75 131.96C26.75 132.25 26.56 132.4 26.17 132.4H20.55H20.53ZM28.84 114.31H31.76L30.3 98.63L28.84 114.31Z" fill="#D57419"></path>
<path d="M43.6501 132.4C43.2601 132.4 43.0701 132.21 43.0701 131.82V75.37C43.0701 75.03 43.2601 74.86 43.6501 74.86H54.0801C55.8801 74.86 57.4201 75.49 58.7101 76.76C60.0001 78.02 60.6401 79.56 60.6401 81.35V100.46C60.6401 102.26 60.0001 103.8 58.7101 105.09C57.4201 106.38 55.8801 107.02 54.0801 107.02H49.8501V131.81C49.8501 132.2 49.6601 132.39 49.2701 132.39H43.6501V132.4ZM49.8501 100.24H53.8601V81.57H49.8501V100.24Z" fill="#D57419"></path>
<path d="M64.6501 132.4C64.2601 132.4 64.0701 132.21 64.0701 131.82V75.37C64.0701 75.03 64.2601 74.86 64.6501 74.86H75.0801C76.8801 74.86 78.4201 75.49 79.7101 76.76C81.0001 78.02 81.6401 79.56 81.6401 81.35V100.46C81.6401 102.26 81.0001 103.8 79.7101 105.09C78.4201 106.38 76.8801 107.02 75.0801 107.02H70.8501V131.81C70.8501 132.2 70.6601 132.39 70.2701 132.39H64.6501V132.4ZM70.8501 100.24H74.8601V81.57H70.8501V100.24Z" fill="#D57419"></path>
<path d="M8.22 0H0V132.4H8.22V0Z" fill="#D57419"></path>
</svg><style>@media (prefers-color-scheme: light) { :root { filter: none; } }
@media (prefers-color-scheme: dark) { :root { filter: none; } }
</style></svg>