<svg xmlns="http://www.w3.org/2000/svg" version="1.1" xmlns:xlink="http://www.w3.org/1999/xlink" width="1000" height="1000"><g clip-path="url(#SvgjsClipPath1147)"><rect width="1000" height="1000" fill="#c1c2be"></rect><g transform="matrix(1.431980906921241,0,0,1.431980906921241,200,224.34367541766107)"><svg xmlns="http://www.w3.org/2000/svg" version="1.1" xmlns:xlink="http://www.w3.org/1999/xlink" width="419" height="385"><svg width="419" height="385" viewBox="0 0 419 385" fill="none" xmlns="http://www.w3.org/2000/svg">
<path d="M67.08 167.09C66.09 167.09 65.6 166.6 65.6 165.61V1.88999C65.6 0.759992 66.09 0.209991 67.08 0.209991H97.53C102.75 0.209991 107.19 2.07 110.84 5.81C114.49 9.55 116.35 14.02 116.35 19.24V74.66C116.35 77.91 115.57 80.92 114.03 83.77C115.57 86.58 116.35 89.63 116.35 92.88V148.3C116.35 153.52 114.52 157.96 110.84 161.61C107.19 165.29 102.72 167.12 97.53 167.12H67.08V167.09ZM85.07 73.82H96.9V19.87H85.07V73.82ZM85.07 147.63H96.9V93.48H85.07V147.63Z" fill="#D57419"></path>
<path d="M128.43 167.09C127.44 167.09 126.95 166.6 126.95 165.61V1.68999C126.95 0.699995 127.44 0.209991 128.43 0.209991H158.68C163.9 0.209991 168.37 2.03999 172.11 5.71999C175.85 9.36999 177.71 13.84 177.71 19.03V74.45C177.71 80.11 175.59 84.8 171.36 88.63L180.87 165.4C180.87 166.53 180.32 167.08 179.19 167.08H162.69C161.7 167.08 161.21 166.59 161.21 165.6L152.34 93.47H146.42V165.6C146.42 166.59 145.87 167.08 144.74 167.08H128.44L128.43 167.09ZM146.41 73.82H158.24V19.67H146.41V73.82Z" fill="#D57419"></path>
<path d="M208.59 167.09C203.37 167.09 198.9 165.23 195.16 161.49C191.42 157.75 189.56 153.28 189.56 148.06V19.03C189.56 13.81 191.42 9.34001 195.16 5.60001C198.9 1.86001 203.37 0 208.59 0H221.5C226.72 0 231.19 1.83 234.93 5.51C238.67 9.19 240.53 13.69 240.53 19.05V148.08C240.53 153.3 238.67 157.77 234.93 161.51C231.19 165.25 226.72 167.11 221.5 167.11H208.59V167.08V167.09ZM209.23 147.43H220.86V19.67H209.23V147.43Z" fill="#D57419"></path>
<path d="M250.67 167.09C249.68 167.09 249.19 166.54 249.19 165.41V1.92001C249.19 0.790006 249.68 0.240005 250.67 0.240005H266.97C268.1 0.240005 268.65 0.790006 268.65 1.92001V65.38L280.92 1.72C281.07 0.730001 281.62 0.240005 282.6 0.240005H299.1C300.52 0.240005 301.07 0.880002 300.78 2.15L284.07 84L300.78 165.21C300.93 166.49 300.34 167.12 299.1 167.12H282.6C281.76 167.12 281.18 166.68 280.92 165.84L268.65 102.38V165.4C268.65 166.53 268.1 167.08 266.97 167.08H250.67V167.09Z" fill="#D57419"></path>
<path d="M312.65 167.09C311.52 167.09 310.97 166.54 310.97 165.41V1.69001C310.97 0.56001 311.52 0.0100098 312.65 0.0100098H352.85C353.84 0.0100098 354.33 0.56001 354.33 1.69001V17.99C354.33 19.12 353.84 19.67 352.85 19.67H330.63V73.82H349.02C350.15 73.82 350.7 74.37 350.7 75.5V91.8C350.7 92.93 350.15 93.48 349.02 93.48H330.63V147.43H352.85C353.84 147.43 354.33 147.98 354.33 149.11V165.41C354.33 166.54 353.84 167.09 352.85 167.09H312.65Z" fill="#D57419"></path>
<path d="M365.93 167.09C364.94 167.09 364.45 166.6 364.45 165.61V1.68999C364.45 0.699995 364.94 0.209991 365.93 0.209991H396.18C401.4 0.209991 405.87 2.03999 409.61 5.71999C413.35 9.36999 415.21 13.84 415.21 19.03V74.45C415.21 80.11 413.09 84.8 408.86 88.63L418.37 165.4C418.37 166.53 417.82 167.08 416.69 167.08H400.19C399.2 167.08 398.71 166.59 398.71 165.6L389.84 93.47H383.92V165.6C383.92 166.59 383.37 167.08 382.24 167.08H365.94L365.93 167.09ZM383.91 73.82H395.74V19.67H383.91V73.82Z" fill="#D57419"></path>
<path d="M59.5399 384.01C58.9899 384.01 58.52 383.89 58.18 383.69C57.84 383.49 57.72 383.08 57.86 382.53L77.7599 218.4C77.7599 217.56 78.25 217.12 79.24 217.12H96.38C97.37 217.12 97.86 217.56 97.86 218.4L117.96 382.73C118.11 383.17 117.99 383.48 117.64 383.69C117.29 383.9 116.83 384.01 116.28 384.01H99.9799C98.8499 384.01 98.3 383.57 98.3 382.73L94.5 351H81.39L77.59 382.73C77.59 383.57 77.04 384.01 75.91 384.01H59.55H59.5399ZM83.65 331.54H92.12L87.89 286.06L83.66 331.54H83.65Z" fill="#D57419"></path>
<path d="M126.6 384.01C125.47 384.01 124.92 383.46 124.92 382.33V218.61C124.92 217.62 125.47 217.13 126.6 217.13H156.85C162.07 217.13 166.54 218.96 170.28 222.64C174.02 226.29 175.88 230.76 175.88 235.95V291.37C175.88 296.59 174.02 301.06 170.28 304.8C166.54 308.54 162.07 310.4 156.85 310.4H144.58V382.3C144.58 383.43 144.03 383.98 142.9 383.98H126.6V384.01ZM144.58 290.73H156.21V236.58H144.58V290.73Z" fill="#D57419"></path>
<path d="M187.51 384.01C186.38 384.01 185.83 383.46 185.83 382.33V218.61C185.83 217.62 186.38 217.13 187.51 217.13H217.76C222.98 217.13 227.45 218.96 231.19 222.64C234.93 226.29 236.79 230.76 236.79 235.95V291.37C236.79 296.59 234.93 301.06 231.19 304.8C227.45 308.54 222.98 310.4 217.76 310.4H205.49V382.3C205.49 383.43 204.94 383.98 203.81 383.98H187.51V384.01ZM205.49 290.73H217.12V236.58H205.49V290.73Z" fill="#D57419"></path>
<path d="M23.84 0.00999451H0V384.01H23.84V0.00999451Z" fill="#D57419"></path>
</svg></svg></g></g><defs><clipPath id="SvgjsClipPath1147"><rect width="1000" height="1000" x="0" y="0" rx="250" ry="250"></rect></clipPath></defs></svg>