<svg width="242" height="242" viewBox="0 0 242 242" fill="none" xmlns="http://www.w3.org/2000/svg">
<path d="M176.623 242C212.73 242 242.001 212.729 242.001 176.622C242.001 140.515 212.73 111.244 176.623 111.244C140.516 111.244 111.245 140.515 111.245 176.622C111.245 212.729 140.516 242 176.623 242Z" fill="#97CF26"/>
<path d="M53.7294 207.054C70.5366 207.054 84.1614 193.429 84.1614 176.622C84.1614 159.815 70.5366 146.19 53.7294 146.19C36.9223 146.19 23.2974 159.815 23.2974 176.622C23.2974 193.429 36.9223 207.054 53.7294 207.054Z" fill="#A169F7"/>
<path d="M176.623 95.8098C199.864 95.8098 218.704 76.9696 218.704 53.7291C218.704 30.4886 199.864 11.6484 176.623 11.6484C153.383 11.6484 134.542 30.4886 134.542 53.7291C134.542 76.9696 153.383 95.8098 176.623 95.8098Z" fill="#FF6163"/>
<path d="M53.7293 107.459C83.4032 107.459 107.459 83.4032 107.459 53.7293C107.459 24.0554 83.4032 0 53.7293 0C24.0554 0 0 24.0554 0 53.7293C0 83.4032 24.0554 107.459 53.7293 107.459Z" fill="#00AAFF"/>
</svg>
