<svg width="66" height="70" viewBox="0 0 66 70" fill="none" xmlns="http://www.w3.org/2000/svg">
<path d="M6.5436 70.0063H39.2616V56.2647H13.7416V28.1273L32.718 15.0401L51.6944 28.1273V40.5601H65.436V24.8555C65.436 22.238 64.3156 19.7461 62.1642 18.3119L36.6441 1.29851C34.0267 -0.446442 31.4093 -0.419177 28.7918 1.29851C21.812 5.87903 7.06709 15.8907 3.92616 17.9847C0.785232 20.0786 0 22.548 0 24.8555V63.4627C0 66.6036 3.2718 70.0063 6.5436 70.0063Z" fill="url(#paint0_linear_1701_43)"/>
<path d="M39.2617 70.0063V47.7181C39.2617 43.7621 42.3866 40.5602 46.2476 40.5602H65.4361L39.2617 70.0063Z" fill="#FBBC33"/>
<defs>
<linearGradient id="paint0_linear_1701_43" x1="1.4595" y1="13.7492" x2="48.7895" y2="57.1265" gradientUnits="userSpaceOnUse">
<stop stop-color="#6BBD3F"/>
<stop offset="0.427083" stop-color="#2CA465"/>
<stop offset="0.828125" stop-color="#148F82"/>
<stop offset="1" stop-color="#0276A2"/>
</linearGradient>
</defs>
</svg>
