<svg width="28" height="28" viewBox="0 0 28 28" fill="none" xmlns="http://www.w3.org/2000/svg">
<path fill-rule="evenodd" clip-rule="evenodd" d="M14 4.8C8.91898 4.8 4.8 8.91898 4.8 14C4.8 19.081 8.91898 23.2 14 23.2C19.081 23.2 23.2 19.081 23.2 14C23.2 8.91898 19.081 4.8 14 4.8ZM14 3C7.92487 3 3 7.92487 3 14C3 20.0751 7.92487 25 14 25C20.0751 25 25 20.0751 25 14C25 7.92487 20.0751 3 14 3Z" fill="currentColor"/>
<path fill-rule="evenodd" clip-rule="evenodd" d="M14 19.9C13.5029 19.9 13.1 19.4971 13.1 19L13.1 13.5C13.1 13.0029 13.5029 12.6 14 12.6C14.4971 12.6 14.9 13.0029 14.9 13.5L14.9 19C14.9 19.4971 14.4971 19.9 14 19.9Z" fill="currentColor"/>
<path d="M12.75 9.25C12.75 8.55965 13.3096 8 14 8C14.6904 8 15.25 8.55965 15.25 9.25C15.25 9.94036 14.6904 10.5 14 10.5C13.3096 10.5 12.75 9.94036 12.75 9.25Z" fill="currentColor"/>
</svg>
